{"accessors" : [{"bufferView" : 0, "byteOffset" : 0, "componentType" : 5123, "count" : 36, "type" : "SCALAR", "max" : [34], "min" : [0]}, {"bufferView" : 1, "byteOffset" : 0, "componentType" : 5126, "count" : 35, "type" : "VEC3", "max" : [25.45237922668457, 33.5, 26.364152908325195], "min" : [-25.45237922668457, -33.5, -26.364152908325195], "name" : "POSITION"}, {"bufferView" : 1, "byteOffset" : 12, "componentType" : 5126, "count" : 35, "type" : "VEC2", "max" : [1, 1], "min" : [0, 0], "name" : "TEXCOORD_0"}, {"bufferView" : 1, "byteOffset" : 20, "componentType" : 5126, "count" : 35, "type" : "VEC3", "max" : [1.0000044107437134, 1.0000044107437134, 1.0000044107437134], "min" : [-1.0000044107437134, -1.0000044107437134, -1.0000044107437134], "name" : "NORMAL"}, {"bufferView" : 0, "byteOffset" : 72, "componentType" : 5123, "count" : 1494, "type" : "SCALAR", "max" : [1263], "min" : [0]}, {"bufferView" : 2, "byteOffset" : 0, "componentType" : 5126, "count" : 1264, "type" : "VEC3", "max" : [50.51514434814453, 32.10148239135742, 213.35549926757812], "min" : [0.40132126212120056, -35.117671966552734, 163.35525512695312], "name" : "POSITION"}, {"bufferView" : 2, "byteOffset" : 12, "componentType" : 5126, "count" : 1264, "type" : "VEC2", "max" : [1, 1], "min" : [0, 0], "name" : "TEXCOORD_0"}, {"bufferView" : 2, "byteOffset" : 20, "componentType" : 5126, "count" : 1264, "type" : "VEC3", "max" : [1.0000044107437134, 1.0000044107437134, 0.9970168471336365], "min" : [-1.0000044107437134, -1.0000044107437134, -0.9993740320205688], "name" : "NORMAL"}, {"bufferView" : 0, "byteOffset" : 3060, "componentType" : 5123, "count" : 672, "type" : "SCALAR", "max" : [594], "min" : [0]}, {"bufferView" : 3, "byteOffset" : 0, "componentType" : 5126, "count" : 595, "type" : "VEC3", "max" : [9.261815071105957, 0.5699999928474426, 9.5], "min" : [-9.261815071105957, -0.5699999928474426, -9.5], "name" : "POSITION"}, {"bufferView" : 3, "byteOffset" : 12, "componentType" : 5126, "count" : 595, "type" : "VEC2", "max" : [1, 1], "min" : [0, 0], "name" : "TEXCOORD_0"}, {"bufferView" : 3, "byteOffset" : 20, "componentType" : 5126, "count" : 595, "type" : "VEC3", "max" : [0.9749569296836853, 1.0000044107437134, 1.0000044107437134], "min" : [-0.9749569296836853, -1.0000044107437134, -1.0000044107437134], "name" : "NORMAL"}, {"bufferView" : 0, "byteOffset" : 4404, "componentType" : 5123, "count" : 672, "type" : "SCALAR", "max" : [594], "min" : [0]}, {"bufferView" : 4, "byteOffset" : 0, "componentType" : 5126, "count" : 595, "type" : "VEC3", "max" : [9.261815071105957, 0.5699999928474426, 9.5], "min" : [-9.261815071105957, -0.5699999928474426, -9.5], "name" : "POSITION"}, {"bufferView" : 4, "byteOffset" : 12, "componentType" : 5126, "count" : 595, "type" : "VEC2", "max" : [1, 1], "min" : [0, 0], "name" : "TEXCOORD_0"}, {"bufferView" : 4, "byteOffset" : 20, "componentType" : 5126, "count" : 595, "type" : "VEC3", "max" : [0.9749569296836853, 1.0000044107437134, 1.0000044107437134], "min" : [-0.9749569296836853, -1.0000044107437134, -1.0000044107437134], "name" : "NORMAL"}, {"bufferView" : 0, "byteOffset" : 5748, "componentType" : 5123, "count" : 36, "type" : "SCALAR", "max" : [34], "min" : [0]}, {"bufferView" : 5, "byteOffset" : 0, "componentType" : 5126, "count" : 35, "type" : "VEC3", "max" : [62.81244659423828, 33.5, 30.63127899169922], "min" : [-62.81244659423828, -33.5, -30.63127899169922], "name" : "POSITION"}, {"bufferView" : 5, "byteOffset" : 12, "componentType" : 5126, "count" : 35, "type" : "VEC2", "max" : [1, 1], "min" : [0, 0], "name" : "TEXCOORD_0"}, {"bufferView" : 5, "byteOffset" : 20, "componentType" : 5126, "count" : 35, "type" : "VEC3", "max" : [1.0000044107437134, 1.0000044107437134, 1.0000044107437134], "min" : [-1.0000044107437134, -1.0000044107437134, -1.0000044107437134], "name" : "NORMAL"}, {"bufferView" : 0, "byteOffset" : 5820, "componentType" : 5123, "count" : 6, "type" : "SCALAR", "max" : [4], "min" : [0]}, {"bufferView" : 6, "byteOffset" : 0, "componentType" : 5126, "count" : 5, "type" : "VEC3", "max" : [2.6903724670410156, -0.04496491700410843, 0.7562119364738464], "min" : [-0.0938730239868164, -0.0615573450922966, -0.6051523685455322], "name" : "POSITION"}, {"bufferView" : 6, "byteOffset" : 12, "componentType" : 5126, "count" : 5, "type" : "VEC2", "max" : [1, 1], "min" : [0, 0], "name" : "TEXCOORD_0"}, {"bufferView" : 6, "byteOffset" : 20, "componentType" : 5126, "count" : 5, "type" : "VEC3", "max" : [0.005899922922253609, 0.9999868869781494, 9.999868780141696E-05], "min" : [0.005899922922253609, 0.9999868869781494, 9.999868780141696E-05], "name" : "NORMAL"}], "asset" : {"generator" : "Aspose.3D 23.4.0", "version" : "2.0"}, "buffers" : [{"uri" : "data:application/octet-stream;base64,", "byteLength" : 99172}], "bufferViews" : [{"buffer" : 0, "byteOffset" : 0, "byteLength" : 5832, "target" : 34963}, {"buffer" : 0, "byteOffset" : 5836, "byteLength" : 1152, "byteStride" : 32, "target" : 34962}, {"buffer" : 0, "byteOffset" : 6992, "byteLength" : 47808, "byteStride" : 32, "target" : 34962}, {"buffer" : 0, "byteOffset" : 54804, "byteLength" : 21504, "byteStride" : 32, "target" : 34962}, {"buffer" : 0, "byteOffset" : 76312, "byteLength" : 21504, "byteStride" : 32, "target" : 34962}, {"buffer" : 0, "byteOffset" : 97820, "byteLength" : 1152, "byteStride" : 32, "target" : 34962}, {"buffer" : 0, "byteOffset" : 98976, "byteLength" : 192, "byteStride" : 32, "target" : 34962}], "images" : [{"uri" : "data:image/png;base64,"}], "materials" : [{"name" : "Material.002", "pbrMetallicRoughness" : {"baseColorFactor" : [0.01298301387578249, 0.012983017601072788, 0.017641954123973846, 1], "metallicFactor" : 0, "roughnessFactor" : 0.5}, "emissiveFactor" : [0, 0, 0], "alphaMode" : "OPAQUE", "doubleSided" : true}, {"name" : "Material.001", "pbrMetallicRoughness" : {"baseColorFactor" : [0.01298301387578249, 0.012983017601072788, 0.017641954123973846, 1], "metallicFactor" : 0, "roughnessFactor" : 0.5}, "emissiveFactor" : [0, 0, 0], "alphaMode" : "OPAQUE", "doubleSided" : true}, {"name" : "Material.003", "pbrMetallicRoughness" : {"baseColorFactor" : [1, 1, 1, 1], "metallicFactor" : 0, "roughnessFactor" : 0.5}, "emissiveFactor" : [0, 0, 0], "alphaMode" : "OPAQUE", "doubleSided" : true}, {"name" : "Frame 59", "pbrMetallicRoughness" : {"baseColorFactor" : [1, 1, 1, 1], "baseColorTexture" : {"index" : 0, "texCoord" : 0}, "metallicFactor" : 0, "roughnessFactor" : 0.5}, "emissiveFactor" : [0, 0, 0], "alphaMode" : "OPAQUE", "doubleSided" : true}], "meshes" : [{"primitives" : [{"attributes" : {"POSITION" : 1, "TEXCOORD_0" : 2, "NORMAL" : 3}, "indices" : 0, "material" : 0, "mode" : 4}]}, {"primitives" : [{"attributes" : {"POSITION" : 5, "TEXCOORD_0" : 6, "NORMAL" : 7}, "indices" : 4, "material" : 1, "mode" : 4}]}, {"primitives" : [{"attributes" : {"POSITION" : 9, "TEXCOORD_0" : 10, "NORMAL" : 11}, "indices" : 8, "mode" : 4}]}, {"primitives" : [{"attributes" : {"POSITION" : 13, "TEXCOORD_0" : 14, "NORMAL" : 15}, "indices" : 12, "mode" : 4}]}, {"primitives" : [{"attributes" : {"POSITION" : 17, "TEXCOORD_0" : 18, "NORMAL" : 19}, "indices" : 16, "material" : 2, "mode" : 4}]}, {"primitives" : [{"attributes" : {"POSITION" : 21, "TEXCOORD_0" : 22, "NORMAL" : 23}, "indices" : 20, "material" : 3, "mode" : 4}]}], "nodes" : [{"matrix" : [5.391990446218861, 6.603243189360989E-16, -0.17124111173833428, 0, -2.6130382347474915E-16, 2.1347965399717888, 4.148253772084085E-18, 0, -0.0029245588551101522, -1.7903138498682957E-19, -0.0920876230310901, 0, 83.28083801269531, 69.93359375, -8.312402725219727, 1], "mesh" : 0, "name" : "cover_back"}, {"matrix" : [5.532680483859419, -0.008511517086609152, 0.1494151654139771, 0, 0.0033276965562406614, 2.134791748740704, -0.001611384928678529, 0, -0.0035289416500969128, 0.00010413993751949404, 0.13067878973954664, 0, -54.600013732910156, 72.65599060058594, -20.534997940063477, 1], "mesh" : 1, "name" : "cover_front"}, {"mesh" : 2, "name" : "Mesh_0"}, {"matrix" : [1, 0, 0, 0, 0, 1, 0, 0, 0, 0, 1, 0, 0, 29, 0, 1], "mesh" : 2, "name" : "Mesh_0.001"}, {"matrix" : [1, 0, 0, 0, 0, 1, 0, 0, 0, 0, 1, 0, 0, 58.000022888183594, 0, 1], "mesh" : 2, "name" : "Mesh_0.002"}, {"matrix" : [1, 0, 0, 0, 0, 1, 0, 0, 0, 0, 1, 0, 0, 87.0000228881836, 0, 1], "mesh" : 2, "name" : "Mesh_0.003"}, {"matrix" : [1, 0, 0, 0, 0, 1, 0, 0, 0, 0, 1, 0, 0, 116.00001525878906, 0, 1], "mesh" : 2, "name" : "Mesh_0.004"}, {"children" : [2, 3, 4, 5, 6], "matrix" : [-0.983734130859375, 1.2047269071375392E-16, 0, 0, -1.2246468525851679E-16, -1, 0, 0, 0, 0, 0.983734130859375, 0, -48.98170471191406, 122.89715576171875, -1, 1], "name" : "Node_11"}, {"matrix" : [1, 0, 0, 0, 0, 1, 0, 0, 0, 0, 1, 0, 0, 4.57763671875E-05, 0, 1], "mesh" : 3, "name" : "Mesh_1"}, {"matrix" : [1, 0, 0, 0, 0, 1, 0, 0, 0, 0, 1, 0, 0, 29.000030517578125, 0, 1], "mesh" : 3, "name" : "Mesh_1.001"}, {"matrix" : [0.9973011576124835, 0.07117819685431494, 0.01800181049249977, 0, -0.07045440876890373, 0.9967882694859581, -0.0380699610971493, 0, -0.020653744780637362, 0.036698909322793655, 0.999112912956405, 0, 0, 58.000030517578125, 0, 1], "mesh" : 3, "name" : "Mesh_1.002"}, {"matrix" : [1, 0, 0, 0, 0, 1, 0, 0, 0, 0, 1, 0, 0, 87.00003051757812, 0, 1], "mesh" : 3, "name" : "Mesh_1.003"}, {"matrix" : [1, 0, 0, 0, 0, 1, 0, 0, 0, 0, 1, 0, 0, 116.00003814697266, 0, 1], "mesh" : 3, "name" : "Mesh_1.004"}, {"children" : [8, 9, 10, 11, 12], "matrix" : [-0.983734130859375, 1.2047269071375392E-16, 0, 0, -1.2246468525851679E-16, -1, 0, 0, 0, 0, 0.983734130859375, 0, -49.473846435546875, 137.89715576171875, 0, 1], "name" : "Node_17"}, {"matrix" : [2.1347947120666504, 0, 0, 0, 0, 2.1347947120666504, 0, 0, 0, 0, 0.1694762408733368, 0, 85.67911529541016, 69.93359375, -0.2069416046142578, 1], "mesh" : 4, "name" : "paper"}, {"matrix" : [-0.983734130859375, 1.2047269071375392E-16, 0, 0, -1.2246468525851679E-16, -1, 0, 0, 0, 0, 0.983734130859375, 0, -49.473846435546875, 137.89715576171875, 0, 1], "mesh" : 3, "name" : "ring6"}, {"matrix" : [-0.983734130859375, 1.2047269071375392E-16, 0, 0, -1.2246468525851679E-16, -1, 0, 0, 0, 0, 0.983734130859375, 0, -48.98170471191406, 122.89715576171875, -1, 1], "mesh" : 2, "name" : "ring6 2"}, {"children" : [0, 1, 7, 13, 14, 15, 16], "matrix" : [1, 0, 0, 0, 0, 1, 0, 0, 0, 0, 1, 0, -64, 17.566404342651367, 3, 1], "name" : "notebook"}, {"children" : [17], "matrix" : [0.009999999776482582, 0, 0, 0, 0, 0.009999999776482582, 0, 0, 0, 0, 0.009999999776482582, 0, 0, 0, 0, 1], "name" : "Node_0"}, {"matrix" : [0.959903551785453, -0.005109704212307093, 0.01261035358080631, 0, -0.013129509096284409, 0.0012122595451753426, 0.9999131969099484, 0, -0.005599637273097502, -1.0489845284334687, 0.0011982250381008532, 0, -1.0399999618530273, 0.9599999785423279, 0.13999998569488525, 1], "mesh" : 5, "name" : "Frame 59"}], "samplers" : [{"magFilter" : 9729, "minFilter" : 9987, "wrapS" : 33071, "wrapT" : 33071}], "scene" : 0, "scenes" : [{"nodes" : [18, 19]}], "textures" : [{"sampler" : 0, "source" : 0, "name" : ""}]}