{"accessors" : [{"bufferView" : 0, "byteOffset" : 0, "componentType" : 5123, "count" : 36, "type" : "SCALAR", "max" : [34], "min" : [0]}, {"bufferView" : 1, "byteOffset" : 0, "componentType" : 5126, "count" : 35, "type" : "VEC3", "max" : [25.45237922668457, 33.5, 26.364152908325195], "min" : [-25.45237922668457, -33.5, -26.364152908325195], "name" : "POSITION"}, {"bufferView" : 1, "byteOffset" : 12, "componentType" : 5126, "count" : 35, "type" : "VEC2", "max" : [1, 1], "min" : [0, 0], "name" : "TEXCOORD_0"}, {"bufferView" : 1, "byteOffset" : 20, "componentType" : 5126, "count" : 35, "type" : "VEC3", "max" : [1.0000044107437134, 1.0000044107437134, 1.0000044107437134], "min" : [-1.0000044107437134, -1.0000044107437134, -1.0000044107437134], "name" : "NORMAL"}, {"bufferView" : 0, "byteOffset" : 72, "componentType" : 5123, "count" : 36, "type" : "SCALAR", "max" : [34], "min" : [0]}, {"bufferView" : 2, "byteOffset" : 0, "componentType" : 5126, "count" : 35, "type" : "VEC3", "max" : [49.904937744140625, 32.0969123840332, 213.1717529296875], "min" : [-0.2142181396484375, -35.136260986328125, 163.1715087890625], "name" : "POSITION"}, {"bufferView" : 2, "byteOffset" : 12, "componentType" : 5126, "count" : 35, "type" : "VEC2", "max" : [1, 1], "min" : [0, 0], "name" : "TEXCOORD_0"}, {"bufferView" : 2, "byteOffset" : 20, "componentType" : 5126, "count" : 35, "type" : "VEC3", "max" : [1.0000044107437134, 1.0000044107437134, 0.9970168471336365], "min" : [-1.0000044107437134, -1.0000044107437134, -0.9993740320205688], "name" : "NORMAL"}, {"bufferView" : 0, "byteOffset" : 144, "componentType" : 5123, "count" : 672, "type" : "SCALAR", "max" : [594], "min" : [0]}, {"bufferView" : 3, "byteOffset" : 0, "componentType" : 5126, "count" : 595, "type" : "VEC3", "max" : [9.261815071105957, 0.5699999928474426, 9.5], "min" : [-9.261815071105957, -0.5699999928474426, -9.5], "name" : "POSITION"}, {"bufferView" : 3, "byteOffset" : 12, "componentType" : 5126, "count" : 595, "type" : "VEC2", "max" : [1, 1], "min" : [0, 0], "name" : "TEXCOORD_0"}, {"bufferView" : 3, "byteOffset" : 20, "componentType" : 5126, "count" : 595, "type" : "VEC3", "max" : [0.9749569296836853, 1.0000044107437134, 1.0000044107437134], "min" : [-0.9749569296836853, -1.0000044107437134, -1.0000044107437134], "name" : "NORMAL"}, {"bufferView" : 0, "byteOffset" : 1488, "componentType" : 5123, "count" : 672, "type" : "SCALAR", "max" : [594], "min" : [0]}, {"bufferView" : 4, "byteOffset" : 0, "componentType" : 5126, "count" : 595, "type" : "VEC3", "max" : [9.261815071105957, 0.5699999928474426, 9.5], "min" : [-9.261815071105957, -0.5699999928474426, -9.5], "name" : "POSITION"}, {"bufferView" : 4, "byteOffset" : 12, "componentType" : 5126, "count" : 595, "type" : "VEC2", "max" : [1, 1], "min" : [0, 0], "name" : "TEXCOORD_0"}, {"bufferView" : 4, "byteOffset" : 20, "componentType" : 5126, "count" : 595, "type" : "VEC3", "max" : [0.9749569296836853, 1.0000044107437134, 1.0000044107437134], "min" : [-0.9749569296836853, -1.0000044107437134, -1.0000044107437134], "name" : "NORMAL"}, {"bufferView" : 0, "byteOffset" : 2832, "componentType" : 5123, "count" : 36, "type" : "SCALAR", "max" : [34], "min" : [0]}, {"bufferView" : 5, "byteOffset" : 0, "componentType" : 5126, "count" : 35, "type" : "VEC3", "max" : [62.81244659423828, 33.5, 30.63127899169922], "min" : [-62.81244659423828, -33.5, -30.63127899169922], "name" : "POSITION"}, {"bufferView" : 5, "byteOffset" : 12, "componentType" : 5126, "count" : 35, "type" : "VEC2", "max" : [1, 1], "min" : [0, 0], "name" : "TEXCOORD_0"}, {"bufferView" : 5, "byteOffset" : 20, "componentType" : 5126, "count" : 35, "type" : "VEC3", "max" : [1.0000044107437134, 1.0000044107437134, 1.0000044107437134], "min" : [-1.0000044107437134, -1.0000044107437134, -1.0000044107437134], "name" : "NORMAL"}], "asset" : {"generator" : "Aspose.3D 23.4.0", "version" : "2.0"}, "buffers" : [{"uri" : "data:application/octet-stream;base64,", "byteLength" : 49392}], "bufferViews" : [{"buffer" : 0, "byteOffset" : 0, "byteLength" : 2904, "target" : 34963}, {"buffer" : 0, "byteOffset" : 2908, "byteLength" : 1152, "byteStride" : 32, "target" : 34962}, {"buffer" : 0, "byteOffset" : 4064, "byteLength" : 1152, "byteStride" : 32, "target" : 34962}, {"buffer" : 0, "byteOffset" : 5220, "byteLength" : 21504, "byteStride" : 32, "target" : 34962}, {"buffer" : 0, "byteOffset" : 26728, "byteLength" : 21504, "byteStride" : 32, "target" : 34962}, {"buffer" : 0, "byteOffset" : 48236, "byteLength" : 1152, "byteStride" : 32, "target" : 34962}], "materials" : [{"name" : "Material.002", "pbrMetallicRoughness" : {"baseColorFactor" : [0.01298301387578249, 0.012983017601072788, 0.017641954123973846, 1], "metallicFactor" : 0, "roughnessFactor" : 0.5}, "emissiveFactor" : [0, 0, 0], "alphaMode" : "OPAQUE", "doubleSided" : true}, {"name" : "Material.001", "pbrMetallicRoughness" : {"baseColorFactor" : [0.01298301387578249, 0.012983017601072788, 0.017641954123973846, 1], "metallicFactor" : 0, "roughnessFactor" : 0.5}, "emissiveFactor" : [0, 0, 0], "alphaMode" : "OPAQUE", "doubleSided" : true}, {"name" : "Material.003", "pbrMetallicRoughness" : {"baseColorFactor" : [1, 1, 1, 1], "metallicFactor" : 0, "roughnessFactor" : 0.5}, "emissiveFactor" : [0, 0, 0], "alphaMode" : "OPAQUE", "doubleSided" : true}], "meshes" : [{"primitives" : [{"attributes" : {"POSITION" : 1, "TEXCOORD_0" : 2, "NORMAL" : 3}, "indices" : 0, "material" : 0, "mode" : 4}]}, {"primitives" : [{"attributes" : {"POSITION" : 5, "TEXCOORD_0" : 6, "NORMAL" : 7}, "indices" : 4, "material" : 1, "mode" : 4}]}, {"primitives" : [{"attributes" : {"POSITION" : 9, "TEXCOORD_0" : 10, "NORMAL" : 11}, "indices" : 8, "mode" : 4}]}, {"primitives" : [{"attributes" : {"POSITION" : 13, "TEXCOORD_0" : 14, "NORMAL" : 15}, "indices" : 12, "mode" : 4}]}, {"primitives" : [{"attributes" : {"POSITION" : 17, "TEXCOORD_0" : 18, "NORMAL" : 19}, "indices" : 16, "material" : 2, "mode" : 4}]}], "nodes" : [{"matrix" : [5.394704818725586, 6.604877581509805E-16, -0.0028246606903128413, 0, -2.61368533740029E-16, 2.134795481536889, 6.842611855031689E-20, 0, -4.824127378869839E-05, -2.9531523823551977E-21, -0.09213403839537851, 0, 83.35296630859375, 69.93359375, -6.208769798278809, 1], "mesh" : 0, "name" : "cover_back"}, {"matrix" : [5.393803276000293, -0.03444187955024564, 0.09238459548063668, 0, 0.0133283585702251, 2.134680025987825, 0.017663640390347252, 0, -0.0008713267596999629, -0.0004142255554133564, 0.05071731277694077, 0, -51.4521484375, 72.92889404296875, -3.6932733058929443, 1], "mesh" : 1, "name" : "cover_front"}, {"mesh" : 2, "name" : "Mesh_0"}, {"matrix" : [1, 0, 0, 0, 0, 1, 0, 0, 0, 0, 1, 0, 0, 29, 0, 1], "mesh" : 2, "name" : "Mesh_0.001"}, {"matrix" : [1, 0, 0, 0, 0, 1, 0, 0, 0, 0, 1, 0, 0, 58.00001525878906, 0, 1], "mesh" : 2, "name" : "Mesh_0.002"}, {"matrix" : [1, 0, 0, 0, 0, 1, 0, 0, 0, 0, 1, 0, 0, 87.00001525878906, 0, 1], "mesh" : 2, "name" : "Mesh_0.003"}, {"matrix" : [1, 0, 0, 0, 0, 1, 0, 0, 0, 0, 1, 0, 0, 116.00001525878906, 0, 1], "mesh" : 2, "name" : "Mesh_0.004"}, {"children" : [2, 3, 4, 5, 6], "matrix" : [-0.983734130859375, 1.2047269071375392E-16, 0, 0, -1.2246468525851679E-16, -1, 0, 0, 0, 0, 0.983734130859375, 0, -48.98170471191406, 122.89715576171875, -1, 1], "name" : "Node_11"}, {"matrix" : [1, 0, 0, 0, 0, 1, 0, 0, 0, 0, 1, 0, 0, 3.0517578125E-05, 0, 1], "mesh" : 3, "name" : "Mesh_1"}, {"matrix" : [1, 0, 0, 0, 0, 1, 0, 0, 0, 0, 1, 0, 0, 29.000022888183594, 0, 1], "mesh" : 3, "name" : "Mesh_1.001"}, {"matrix" : [0.9973011586325949, 0.07117818203669896, 0.018001812500316405, 0, -0.07045439380953172, 0.9967882704027146, -0.03806996474115604, 0, -0.020653746494944225, 0.036698913123033916, 0.9991129127809872, 0, 0, 58.00001525878906, 0, 1], "mesh" : 3, "name" : "Mesh_1.002"}, {"matrix" : [1, 0, 0, 0, 0, 1, 0, 0, 0, 0, 1, 0, 0, 87.0000228881836, 0, 1], "mesh" : 3, "name" : "Mesh_1.003"}, {"matrix" : [1, 0, 0, 0, 0, 1, 0, 0, 0, 0, 1, 0, 0, 116.0000228881836, 0, 1], "mesh" : 3, "name" : "Mesh_1.004"}, {"children" : [8, 9, 10, 11, 12], "matrix" : [-0.983734130859375, 1.2047269071375392E-16, 0, 0, -1.2246468525851679E-16, -1, 0, 0, 0, 0, 0.983734130859375, 0, -49.473846435546875, 137.89715576171875, 0, 1], "name" : "Node_17"}, {"matrix" : [2.1347947120666504, 0, 0, 0, 0, 2.1347947120666504, 0, 0, 0, 0, 0.1694762408733368, 0, 85.67911529541016, 69.93359375, -0.2069416046142578, 1], "mesh" : 4, "name" : "paper"}, {"matrix" : [-0.983734130859375, 1.2047269071375392E-16, 0, 0, -1.2246468525851679E-16, -1, 0, 0, 0, 0, 0.983734130859375, 0, -49.473846435546875, 137.89715576171875, 0, 1], "mesh" : 3, "name" : "ring6"}, {"matrix" : [-0.983734130859375, 1.2047269071375392E-16, 0, 0, -1.2246468525851679E-16, -1, 0, 0, 0, 0, 0.983734130859375, 0, -48.98170471191406, 122.89715576171875, -1, 1], "mesh" : 2, "name" : "ring6 2"}, {"children" : [0, 1, 7, 13, 14, 15, 16], "matrix" : [1, 0, 0, 0, 0, 1, 0, 0, 0, 0, 1, 0, -64, 17.566404342651367, 3, 1], "name" : "notebook"}, {"children" : [17], "matrix" : [0.009999999776482582, 0, 0, 0, 0, 0.009999999776482582, 0, 0, 0, 0, 0.009999999776482582, 0, 0, 0, 0, 1], "name" : "Node_0"}], "scene" : 0, "scenes" : [{"nodes" : [18]}]}